PathFileType	4	(X/Y/Z)	47_1_31_p1_0-551.trc
DataRate	CameraRate	NumFrames	NumMarkers	Units	OrigDataRate	OrigDataStartFrame	OrigNumFrames
59.0	59.0	4	27	m	59.0	0	552
Frame#	Time	RHip			RKnee			RAnkle			RBigToe			RSmallToe			RHeel			LHip			LKnee			LAnkle			LBigToe			LSmallToe			LHeel			Neck			Head			Nose			RShoulder			RElbow			RWrist			RThumb			RIndex			RPinky			LShoulder			LElbow			LWrist			LThumb			LIndex			LPinky			
		X1	Y1	Z1	X2	Y2	Z2	X3	Y3	Z3	X4	Y4	Z4	X5	Y5	Z5	X6	Y6	Z6	X7	Y7	Z7	X8	Y8	Z8	X9	Y9	Z9	X10	Y10	Z10	X11	Y11	Z11	X12	Y12	Z12	X13	Y13	Z13	X14	Y14	Z14	X15	Y15	Z15	X16	Y16	Z16	X17	Y17	Z17	X18	Y18	Z18	X19	Y19	Z19	X20	Y20	Z20	X21	Y21	Z21	X22	Y22	Z22	X23	Y23	Z23	X24	Y24	Z24	X25	Y25	Z25	X26	Y26	Z26	X27	Y27	Z27	
0	0.0	0.3694266133369055	0.388692921952223	-0.2265610987870249	0.35055844225307425	0.6576289030579551	0.14762466757706702	0.30497390540584585	0.8952976651166624	0.5424833545712022	0.367197914812645	0.6448598557170181	0.6524249667870017	0.41595837833632104	0.7214756694651955	0.638734091625518	0.26048897696856066	0.9789029393126147	0.5680651538538972	0.16360588144980825	0.35949107549352854	-0.18654689747294695	0.13371661382042785	0.6010574316080525	0.18388076005190185	0.12845079723654038	0.8033980168661242	0.5308320482972038	0.20257421409599827	0.6380702930556041	0.6621913073985777	0.12896449369840185	0.6991705594716502	0.6671629208043544	0.12656539737079237	0.8809317562527342	0.5621841954323799	0.2857608641799083	0.09849057071100295	-0.6964342273912508	0.31720827666153056	-0.08848384494244933	-0.8973031166547123	0.3253011060472444	-0.08425891861683975	-0.7338232979186755	0.43905171430342793	0.16831373438951408	-0.6218443317288668	0.5006723361991718	0.22767457857443402	-0.36788456301572325	0.39091347067151644	0.24833118590753323	-0.15696100339771032	0.3110975458255715	0.27383965112424075	-0.05683082209338525	0.29862881195446217	0.27518902069178675	-0.04533464098761211	0.29279153980042283	0.2838409637589584	-0.05483355872705806	0.13731803266383985	0.12013840052536216	-0.6106385630816834	0.11040830090689728	0.18962295182236133	-0.33409628642563516	0.25381424466598024	0.20420839351740042	-0.14825540629947606	0.36231734906075613	0.21590277723940568	-0.10339840806877923	0.3580851112113176	0.24064318120533612	-0.058339114993550586	0.31040871869271436	0.26508805150191533	-0.0439293229759769
1	0.01694915254237288	0.37772729803062627	0.3897417602214502	-0.22740279267299882	0.3588755285411335	0.6463443351920342	0.1558046506235894	0.3048724134749483	0.8947023330293173	0.5423616631226695	0.36685574311288677	0.6481254137960711	0.653638652915706	0.4198383025058032	0.7243104422049176	0.6381200748527069	0.2601500604331257	0.9731812567115933	0.5632437834389462	0.1627244749437894	0.3742834478718876	-0.18696234057157496	0.14309999821633781	0.5922242778738614	0.18903715771197585	0.1316574740908751	0.8066352878530116	0.530228732459482	0.20280286206556244	0.6379294308332044	0.662460007686269	0.12892895422897518	0.6994275280030174	0.6674619611770829	0.12727838940091532	0.8813021980480163	0.5656092487433482	0.29376073037140105	0.0851499917332084	-0.6981430144054873	0.3244805310806628	-0.09688967643012268	-0.8920459441782883	0.32505696451173627	-0.08411624846547393	-0.7339419807110932	0.43900809679332997	0.16843540799713153	-0.6218750056806254	0.5003489142942661	0.2291711457369204	-0.36497143349011074	0.39103494893683427	0.24895312582915713	-0.15735838730723373	0.31408031957280663	0.27341651418090396	-0.05990398867255247	0.2979078666256154	0.2878273819965929	-0.04868222482952801	0.29319329885596335	0.2839302050123714	-0.05392414626606149	0.13771509488999026	0.11649117898405925	-0.6164691330415185	0.11364708907354197	0.19304386165164955	-0.33552399651041914	0.2547438107546558	0.19322016534188408	-0.14557881777958753	0.36194446555381016	0.21326481648324633	-0.10647593179237053	0.35893802381518375	0.2386525942904703	-0.06061689423534715	0.31047392270690893	0.2654004548942356	-0.04397306949393805
2	0.03389830508474576	0.3777840017856675	0.3895348989401819	-0.22748923225118362	0.3503559106670695	0.6603177424120439	0.15504292459389277	0.3049339612532149	0.8950330454767105	0.5423766429874609	0.3547224140358194	0.6606750102427789	0.6557930798703657	0.4157217633648719	0.7225899526580637	0.6387890371551815	0.2602313557388426	0.9735329208619911	0.5633477808755205	0.16362666214999186	0.35953721341835465	-0.18670271690883344	0.14305946664642183	0.5921648675594893	0.18905252192845365	0.13173400014349612	0.806545192460228	0.530113918040481	0.20296709151513237	0.6418583309207353	0.6663032595651515	0.12764101025750418	0.7015173950387948	0.6713177984028889	0.12726145870051095	0.8811673887586472	0.56584035485885	0.28595449518517735	0.09493257807031927	-0.7024920596384134	0.32448978803405654	-0.09673339325429678	-0.8919602434277399	0.3250981100391309	-0.08407986482129663	-0.7339774274201638	0.43879065247873844	0.1647840881639274	-0.6278067747298726	0.5001605591940446	0.22662786843411023	-0.3718157336794028	0.39116612635278586	0.24912705695415863	-0.15761398614505204	0.31047980310654055	0.27013989823291296	-0.0643930025886747	0.2895895387742224	0.29868499958619	-0.05020448470442731	0.2850547902678507	0.2956060089585972	-0.05267278847062898	0.13761507109097504	0.11764484535977354	-0.6135875593582243	0.12246650537209107	0.18233605268166958	-0.33260914465126534	0.25370599714657055	0.20519095000054277	-0.1486099183638542	0.3539677467761258	0.22470567587868295	-0.10837903360585423	0.35004874027743643	0.25188344422592934	-0.06005148895655424	0.3056296024126001	0.2775374453696939	-0.04634668246845156
3	0.05084745762711865	0.37777428600702	0.38969696043816293	-0.2273946228780764	0.3510687803034129	0.6585182119780643	0.15133875373078426	0.3048848555346394	0.8945224713635835	0.5422148128612292	0.3548488451653706	0.6602237949805297	0.6557849090692651	0.4160571431886495	0.7264160660354263	0.6427170122988678	0.2603738313433191	0.9728805913205272	0.563150648140957	0.15938894658245414	0.37102985488261453	-0.18923801110114408	0.14540192493359208	0.5922193132253539	0.18761745515565242	0.13173039728316	0.8064379853455338	0.530213403182264	0.2030414143732889	0.6414429907294518	0.6663992975413464	0.1280482874447128	0.6991079010059871	0.6638686860889045	0.1273668263923638	0.8811983603798252	0.5657550509793284	0.286042307160252	0.09586960004659642	-0.6997652559233905	0.3173294242612857	-0.08808555479329909	-0.8968338514629765	0.3251537261872621	-0.08418350600317613	-0.7339239625183815	0.43881437285753416	0.16483153487114	-0.6277849907224251	0.49298336762673356	0.23820258287631105	-0.3751101121873319	0.39164858927751034	0.24759186132991493	-0.16080792666519403	0.3104415727414173	0.2699971061865933	-0.06446044978097847	0.29771217141980355	0.28788084426829513	-0.04870523285336536	0.29314974252750964	0.2842496558354684	-0.05088266265630273	0.13747014235586746	0.12152008336467204	-0.6070247068521896	0.12254524386776014	0.1823567944580408	-0.33237267145602306	0.25320284121453385	0.20718745868775842	-0.14544292588658847	0.3535652933737577	0.22652281557743337	-0.10479249834600553	0.3485072048065761	0.2548697869987428	-0.057531097071541706	0.3019725382534834	0.27695836344480534	-0.045586477041083054
